<mxfile host="app.diagrams.net" modified="2024-04-18T10:16:58.454Z" agent="Mozilla/5.0 (Windows NT 10.0; Win64; x64; rv:124.0) Gecko/20100101 Firefox/124.0" etag="MWuwEfiWYAgf9Vw52Fjc" version="24.2.5" type="device">
  <diagram name="Strona-1" id="MR1mZcaCUWiJhapN_QBq">
    <mxGraphModel dx="768" dy="387" grid="1" gridSize="10" guides="1" tooltips="1" connect="1" arrows="1" fold="1" page="1" pageScale="1" pageWidth="600" pageHeight="100" math="0" shadow="0">
      <root>
        <mxCell id="0" />
        <mxCell id="1" parent="0" />
        <mxCell id="xS2e157sMN2c-IKGLj5z-18" value="" style="rounded=0;whiteSpace=wrap;html=1;strokeColor=none;" vertex="1" parent="1">
          <mxGeometry width="600" height="200" as="geometry" />
        </mxCell>
        <mxCell id="xS2e157sMN2c-IKGLj5z-1" value="" style="rounded=1;whiteSpace=wrap;html=1;" vertex="1" parent="1">
          <mxGeometry x="15" y="90" width="120" height="60" as="geometry" />
        </mxCell>
        <mxCell id="xS2e157sMN2c-IKGLj5z-5" value="&lt;b&gt;&lt;font style=&quot;font-size: 15px;&quot;&gt;GUI Component&lt;/font&gt;&lt;/b&gt;" style="text;html=1;align=center;verticalAlign=middle;whiteSpace=wrap;rounded=0;" vertex="1" parent="1">
          <mxGeometry x="25" y="97.5" width="100" height="45" as="geometry" />
        </mxCell>
        <mxCell id="xS2e157sMN2c-IKGLj5z-6" value="" style="rounded=1;whiteSpace=wrap;html=1;" vertex="1" parent="1">
          <mxGeometry x="165" y="90" width="120" height="60" as="geometry" />
        </mxCell>
        <mxCell id="xS2e157sMN2c-IKGLj5z-7" value="&lt;b&gt;Fight Module&lt;br&gt;&lt;/b&gt;" style="text;html=1;align=center;verticalAlign=middle;whiteSpace=wrap;rounded=0;" vertex="1" parent="1">
          <mxGeometry x="175" y="97.5" width="100" height="45" as="geometry" />
        </mxCell>
        <mxCell id="xS2e157sMN2c-IKGLj5z-8" value="" style="rounded=1;whiteSpace=wrap;html=1;" vertex="1" parent="1">
          <mxGeometry x="315" y="90" width="120" height="60" as="geometry" />
        </mxCell>
        <mxCell id="xS2e157sMN2c-IKGLj5z-9" value="&lt;b&gt;GUI State&lt;br&gt;&lt;/b&gt;" style="text;html=1;align=center;verticalAlign=middle;whiteSpace=wrap;rounded=0;" vertex="1" parent="1">
          <mxGeometry x="325" y="97.5" width="100" height="45" as="geometry" />
        </mxCell>
        <mxCell id="xS2e157sMN2c-IKGLj5z-10" value="" style="rounded=1;whiteSpace=wrap;html=1;" vertex="1" parent="1">
          <mxGeometry x="465" y="90" width="120" height="60" as="geometry" />
        </mxCell>
        <mxCell id="xS2e157sMN2c-IKGLj5z-11" value="&lt;b&gt;&lt;font style=&quot;font-size: 15px;&quot;&gt;GUI&lt;br&gt;&lt;/font&gt;&lt;/b&gt;" style="text;html=1;align=center;verticalAlign=middle;whiteSpace=wrap;rounded=0;" vertex="1" parent="1">
          <mxGeometry x="475" y="97.5" width="100" height="45" as="geometry" />
        </mxCell>
        <mxCell id="xS2e157sMN2c-IKGLj5z-12" value="" style="endArrow=classic;html=1;rounded=0;exitX=1;exitY=0.5;exitDx=0;exitDy=0;entryX=0;entryY=0.5;entryDx=0;entryDy=0;" edge="1" parent="1" source="xS2e157sMN2c-IKGLj5z-1" target="xS2e157sMN2c-IKGLj5z-6">
          <mxGeometry width="50" height="50" relative="1" as="geometry">
            <mxPoint x="275" y="200" as="sourcePoint" />
            <mxPoint x="325" y="150" as="targetPoint" />
          </mxGeometry>
        </mxCell>
        <mxCell id="xS2e157sMN2c-IKGLj5z-13" value="" style="endArrow=classic;html=1;rounded=0;exitX=1;exitY=0.5;exitDx=0;exitDy=0;entryX=0;entryY=0.5;entryDx=0;entryDy=0;" edge="1" parent="1" source="xS2e157sMN2c-IKGLj5z-8" target="xS2e157sMN2c-IKGLj5z-10">
          <mxGeometry width="50" height="50" relative="1" as="geometry">
            <mxPoint x="245" y="250" as="sourcePoint" />
            <mxPoint x="295" y="200" as="targetPoint" />
          </mxGeometry>
        </mxCell>
        <mxCell id="xS2e157sMN2c-IKGLj5z-14" value="" style="endArrow=classic;html=1;rounded=0;exitX=1;exitY=0.5;exitDx=0;exitDy=0;entryX=0;entryY=0.5;entryDx=0;entryDy=0;" edge="1" parent="1" source="xS2e157sMN2c-IKGLj5z-6" target="xS2e157sMN2c-IKGLj5z-8">
          <mxGeometry width="50" height="50" relative="1" as="geometry">
            <mxPoint x="135" y="240" as="sourcePoint" />
            <mxPoint x="185" y="190" as="targetPoint" />
          </mxGeometry>
        </mxCell>
        <mxCell id="xS2e157sMN2c-IKGLj5z-16" value="" style="endArrow=classic;html=1;rounded=0;exitX=0.5;exitY=0;exitDx=0;exitDy=0;entryX=0.5;entryY=0;entryDx=0;entryDy=0;" edge="1" parent="1" source="xS2e157sMN2c-IKGLj5z-10" target="xS2e157sMN2c-IKGLj5z-1">
          <mxGeometry width="50" height="50" relative="1" as="geometry">
            <mxPoint x="365" as="sourcePoint" />
            <mxPoint x="25" y="20" as="targetPoint" />
            <Array as="points">
              <mxPoint x="525" y="60" />
              <mxPoint x="75" y="60" />
            </Array>
          </mxGeometry>
        </mxCell>
        <mxCell id="xS2e157sMN2c-IKGLj5z-17" value="Contains" style="text;html=1;align=center;verticalAlign=middle;whiteSpace=wrap;rounded=0;" vertex="1" parent="1">
          <mxGeometry x="270" y="40" width="60" height="20" as="geometry" />
        </mxCell>
      </root>
    </mxGraphModel>
  </diagram>
</mxfile>
